<?xml version="1.0" encoding="UTF-8" standalone="no"?>
<!-- Created with Inkscape (http://www.inkscape.org/) -->

<svg
   width="11in"
   height="17in"
   viewBox="0 0 279.4 431.8"
   version="1.1"
   id="svg1"
   inkscape:version="1.3.2 (1:1.3.2+202311252150+091e20ef0f)"
   sodipodi:docname="nb15-poster_black.svg"
   inkscape:export-filename="nb15-poster_black.png"
   inkscape:export-xdpi="90.909088"
   inkscape:export-ydpi="90.909088"
   xmlns:inkscape="http://www.inkscape.org/namespaces/inkscape"
   xmlns:sodipodi="http://sodipodi.sourceforge.net/DTD/sodipodi-0.dtd"
   xmlns="http://www.w3.org/2000/svg"
   xmlns:svg="http://www.w3.org/2000/svg">
  <sodipodi:namedview
     id="namedview1"
     pagecolor="#ffffff"
     bordercolor="#000000"
     borderopacity="0.25"
     inkscape:showpageshadow="2"
     inkscape:pageopacity="0.0"
     inkscape:pagecheckerboard="0"
     inkscape:deskcolor="#d1d1d1"
     inkscape:document-units="in"
     showguides="true"
     inkscape:zoom="1.0181125"
     inkscape:cx="495.52478"
     inkscape:cy="1360.8515"
     inkscape:window-width="1733"
     inkscape:window-height="1131"
     inkscape:window-x="0"
     inkscape:window-y="0"
     inkscape:window-maximized="1"
     inkscape:current-layer="layer1" />
  <defs
     id="defs1">
    <inkscape:path-effect
       effect="taper_stroke"
       start_shape="center | center"
       end_shape="center | center"
       id="path-effect14-7-1"
       is_visible="true"
       lpeversion="1"
       stroke_width="1.88976"
       subpath="1"
       attach_start="0.5"
       end_offset="0"
       start_smoothing="0.5"
       end_smoothing="0.5"
       jointype="extrapolated"
       miter_limit="100" />
    <inkscape:path-effect
       effect="taper_stroke"
       start_shape="center | center"
       end_shape="center | center"
       id="path-effect14-7-9-8"
       is_visible="true"
       lpeversion="1"
       stroke_width="1.88976"
       subpath="1"
       attach_start="0.0022281559"
       end_offset="0.5"
       start_smoothing="0.5"
       end_smoothing="0.5"
       jointype="extrapolated"
       miter_limit="100" />
    <inkscape:path-effect
       effect="taper_stroke"
       start_shape="center | center"
       end_shape="center | center"
       id="path-effect14-7-9-5-3"
       is_visible="true"
       lpeversion="1"
       stroke_width="1.88976"
       subpath="1"
       attach_start="0.0022281559"
       end_offset="0.5"
       start_smoothing="0.5"
       end_smoothing="0.5"
       jointype="extrapolated"
       miter_limit="100" />
    <inkscape:path-effect
       effect="taper_stroke"
       start_shape="center | center"
       end_shape="center | center"
       id="path-effect4-5"
       is_visible="true"
       lpeversion="1"
       stroke_width="1.88976"
       subpath="1"
       attach_start="0.5"
       end_offset="0"
       start_smoothing="0.5"
       end_smoothing="0.5"
       jointype="extrapolated"
       miter_limit="100" />
    <inkscape:path-effect
       effect="taper_stroke"
       start_shape="center | center"
       end_shape="center | center"
       id="path-effect17-4"
       is_visible="true"
       lpeversion="1"
       stroke_width="1.88976"
       subpath="1"
       attach_start="0.0022281559"
       end_offset="0.5"
       start_smoothing="0.5"
       end_smoothing="0.5"
       jointype="extrapolated"
       miter_limit="100" />
    <inkscape:path-effect
       effect="taper_stroke"
       start_shape="center | center"
       end_shape="center | center"
       id="path-effect19-2"
       is_visible="true"
       lpeversion="1"
       stroke_width="1.88976"
       subpath="1"
       attach_start="0.0022281559"
       end_offset="0.64120097"
       start_smoothing="0.5"
       end_smoothing="0.5"
       jointype="extrapolated"
       miter_limit="100" />
    <inkscape:path-effect
       effect="taper_stroke"
       start_shape="center | center"
       end_shape="center | center"
       id="path-effect21-34"
       is_visible="true"
       lpeversion="1"
       stroke_width="1"
       subpath="1"
       attach_start="0.5"
       end_offset="0.5"
       start_smoothing="0.5"
       end_smoothing="0.5"
       jointype="extrapolated"
       miter_limit="100" />
    <inkscape:path-effect
       effect="taper_stroke"
       start_shape="center | center"
       end_shape="center | center"
       id="path-effect23-3"
       is_visible="true"
       lpeversion="1"
       stroke_width="1"
       subpath="1"
       attach_start="0.5"
       end_offset="0.5"
       start_smoothing="0.5"
       end_smoothing="0.5"
       jointype="extrapolated"
       miter_limit="100" />
    <inkscape:path-effect
       effect="taper_stroke"
       start_shape="center | center"
       end_shape="center | center"
       id="path-effect25-4"
       is_visible="true"
       lpeversion="1"
       stroke_width="1"
       subpath="1"
       attach_start="0.5"
       end_offset="0.5"
       start_smoothing="0.5"
       end_smoothing="0.5"
       jointype="extrapolated"
       miter_limit="100" />
    <inkscape:path-effect
       effect="taper_stroke"
       start_shape="center | center"
       end_shape="center | center"
       id="path-effect47-0"
       is_visible="true"
       lpeversion="1"
       stroke_width="1.88976"
       subpath="1"
       attach_start="0.5"
       end_offset="0.5"
       start_smoothing="0.5"
       end_smoothing="0.5"
       jointype="extrapolated"
       miter_limit="100" />
    <inkscape:path-effect
       effect="taper_stroke"
       start_shape="center | center"
       end_shape="center | center"
       id="path-effect49-39"
       is_visible="true"
       lpeversion="1"
       stroke_width="1.88976"
       subpath="1"
       attach_start="0.5"
       end_offset="0.5"
       start_smoothing="0.5"
       end_smoothing="0.5"
       jointype="extrapolated"
       miter_limit="100" />
    <inkscape:path-effect
       effect="taper_stroke"
       start_shape="center | center"
       end_shape="center | center"
       id="path-effect51-3"
       is_visible="true"
       lpeversion="1"
       stroke_width="1.88976"
       subpath="1"
       attach_start="0.5"
       end_offset="0.5"
       start_smoothing="0.5"
       end_smoothing="0.5"
       jointype="extrapolated"
       miter_limit="100" />
    <inkscape:path-effect
       effect="taper_stroke"
       start_shape="center | center"
       end_shape="center | center"
       id="path-effect53-0"
       is_visible="true"
       lpeversion="1"
       stroke_width="1.88976"
       subpath="1"
       attach_start="0.5"
       end_offset="0.5"
       start_smoothing="0.5"
       end_smoothing="0.5"
       jointype="extrapolated"
       miter_limit="100" />
    <inkscape:path-effect
       effect="taper_stroke"
       start_shape="center | center"
       end_shape="center | center"
       id="path-effect55-0"
       is_visible="true"
       lpeversion="1"
       stroke_width="1.88976"
       subpath="1"
       attach_start="0.5"
       end_offset="0.5"
       start_smoothing="0.5"
       end_smoothing="0.5"
       jointype="extrapolated"
       miter_limit="100" />
    <inkscape:path-effect
       effect="taper_stroke"
       start_shape="center | center"
       end_shape="center | center"
       id="path-effect57-2"
       is_visible="true"
       lpeversion="1"
       stroke_width="1.88976"
       subpath="1"
       attach_start="0.5"
       end_offset="0.5"
       start_smoothing="0.5"
       end_smoothing="0.5"
       jointype="extrapolated"
       miter_limit="100" />
    <inkscape:path-effect
       effect="taper_stroke"
       start_shape="center | center"
       end_shape="center | center"
       id="path-effect59-74"
       is_visible="true"
       lpeversion="1"
       stroke_width="1.88976"
       subpath="1"
       attach_start="0.5"
       end_offset="0.5"
       start_smoothing="0.5"
       end_smoothing="0.5"
       jointype="extrapolated"
       miter_limit="100" />
    <inkscape:path-effect
       effect="taper_stroke"
       start_shape="center | center"
       end_shape="center | center"
       id="path-effect61-5"
       is_visible="true"
       lpeversion="1"
       stroke_width="1.88976"
       subpath="1"
       attach_start="0.5"
       end_offset="0.5"
       start_smoothing="0.5"
       end_smoothing="0.5"
       jointype="extrapolated"
       miter_limit="100" />
    <inkscape:path-effect
       effect="taper_stroke"
       start_shape="center | center"
       end_shape="center | center"
       id="path-effect61-8-0"
       is_visible="true"
       lpeversion="1"
       stroke_width="1.88976"
       subpath="1"
       attach_start="0.5"
       end_offset="0.5"
       start_smoothing="0.5"
       end_smoothing="0.5"
       jointype="extrapolated"
       miter_limit="100" />
    <inkscape:path-effect
       effect="taper_stroke"
       start_shape="center | center"
       end_shape="center | center"
       id="path-effect61-2-1"
       is_visible="true"
       lpeversion="1"
       stroke_width="1.88976"
       subpath="1"
       attach_start="0.5"
       end_offset="0.5"
       start_smoothing="0.5"
       end_smoothing="0.5"
       jointype="extrapolated"
       miter_limit="100" />
    <inkscape:path-effect
       effect="taper_stroke"
       start_shape="center | center"
       end_shape="center | center"
       id="path-effect63-6"
       is_visible="true"
       lpeversion="1"
       stroke_width="1.88976"
       subpath="1"
       attach_start="0.5"
       end_offset="0.5"
       start_smoothing="0.5"
       end_smoothing="0.5"
       jointype="extrapolated"
       miter_limit="100" />
    <inkscape:path-effect
       effect="taper_stroke"
       start_shape="center | center"
       end_shape="center | center"
       id="path-effect65-3"
       is_visible="true"
       lpeversion="1"
       stroke_width="1.88976"
       subpath="1"
       attach_start="0.5"
       end_offset="0.5"
       start_smoothing="0.5"
       end_smoothing="0.5"
       jointype="extrapolated"
       miter_limit="100" />
    <inkscape:path-effect
       effect="taper_stroke"
       start_shape="center | center"
       end_shape="center | center"
       id="path-effect53-1-6"
       is_visible="true"
       lpeversion="1"
       stroke_width="1.88976"
       subpath="1"
       attach_start="0.5"
       end_offset="0.5"
       start_smoothing="0.5"
       end_smoothing="0.5"
       jointype="extrapolated"
       miter_limit="100" />
    <inkscape:path-effect
       effect="taper_stroke"
       start_shape="center | center"
       end_shape="center | center"
       id="path-effect53-1-1-0"
       is_visible="true"
       lpeversion="1"
       stroke_width="1.88976"
       subpath="1"
       attach_start="0.5"
       end_offset="0.5"
       start_smoothing="0.5"
       end_smoothing="0.5"
       jointype="extrapolated"
       miter_limit="100" />
    <inkscape:path-effect
       effect="taper_stroke"
       start_shape="center | center"
       end_shape="center | center"
       id="path-effect61-2-9-2"
       is_visible="true"
       lpeversion="1"
       stroke_width="1.88976"
       subpath="1"
       attach_start="0.5"
       end_offset="0.5"
       start_smoothing="0.5"
       end_smoothing="0.5"
       jointype="extrapolated"
       miter_limit="100" />
    <inkscape:path-effect
       effect="taper_stroke"
       start_shape="center | center"
       end_shape="center | center"
       id="path-effect65-4-2"
       is_visible="true"
       lpeversion="1"
       stroke_width="1.88976"
       subpath="1"
       attach_start="0.5"
       end_offset="0.5"
       start_smoothing="0.5"
       end_smoothing="0.5"
       jointype="extrapolated"
       miter_limit="100" />
    <inkscape:path-effect
       effect="taper_stroke"
       start_shape="center | center"
       end_shape="center | center"
       id="path-effect71-8"
       is_visible="true"
       lpeversion="1"
       stroke_width="1.88976"
       subpath="1"
       attach_start="0.5"
       end_offset="0.5"
       start_smoothing="0.5"
       end_smoothing="0.5"
       jointype="extrapolated"
       miter_limit="100" />
    <inkscape:path-effect
       effect="taper_stroke"
       start_shape="center | center"
       end_shape="center | center"
       id="path-effect73-85"
       is_visible="true"
       lpeversion="1"
       stroke_width="1.88976"
       subpath="1"
       attach_start="0.5"
       end_offset="0.5"
       start_smoothing="0.5"
       end_smoothing="0.5"
       jointype="extrapolated"
       miter_limit="100" />
    <inkscape:path-effect
       effect="taper_stroke"
       start_shape="center | center"
       end_shape="center | center"
       id="path-effect75-4"
       is_visible="true"
       lpeversion="1"
       stroke_width="1.88976"
       subpath="1"
       attach_start="0.5"
       end_offset="0.5"
       start_smoothing="0.5"
       end_smoothing="0.5"
       jointype="extrapolated"
       miter_limit="100" />
    <inkscape:path-effect
       effect="taper_stroke"
       start_shape="center | center"
       end_shape="center | center"
       id="path-effect77-3"
       is_visible="true"
       lpeversion="1"
       stroke_width="1.88976"
       subpath="1"
       attach_start="0.5"
       end_offset="0.5"
       start_smoothing="0.5"
       end_smoothing="0.5"
       jointype="extrapolated"
       miter_limit="100" />
    <inkscape:path-effect
       effect="taper_stroke"
       start_shape="center | center"
       end_shape="center | center"
       id="path-effect79-1"
       is_visible="true"
       lpeversion="1"
       stroke_width="1.88976"
       subpath="1"
       attach_start="0.5"
       end_offset="0.5"
       start_smoothing="0.5"
       end_smoothing="0.5"
       jointype="extrapolated"
       miter_limit="100" />
    <inkscape:path-effect
       effect="taper_stroke"
       start_shape="center | center"
       end_shape="center | center"
       id="path-effect81-0"
       is_visible="true"
       lpeversion="1"
       stroke_width="1.88976"
       subpath="1"
       attach_start="0.5"
       end_offset="0.5"
       start_smoothing="0.5"
       end_smoothing="0.5"
       jointype="extrapolated"
       miter_limit="100" />
    <inkscape:path-effect
       effect="taper_stroke"
       start_shape="center | center"
       end_shape="center | center"
       id="path-effect71-0-9"
       is_visible="true"
       lpeversion="1"
       stroke_width="1.88976"
       subpath="1"
       attach_start="0.5"
       end_offset="0.5"
       start_smoothing="0.5"
       end_smoothing="0.5"
       jointype="extrapolated"
       miter_limit="100" />
    <inkscape:path-effect
       effect="taper_stroke"
       start_shape="center | center"
       end_shape="center | center"
       id="path-effect73-9-8"
       is_visible="true"
       lpeversion="1"
       stroke_width="1.88976"
       subpath="1"
       attach_start="0.5"
       end_offset="0.5"
       start_smoothing="0.5"
       end_smoothing="0.5"
       jointype="extrapolated"
       miter_limit="100" />
    <inkscape:path-effect
       effect="taper_stroke"
       start_shape="center | center"
       end_shape="center | center"
       id="path-effect75-8-0"
       is_visible="true"
       lpeversion="1"
       stroke_width="1.88976"
       subpath="1"
       attach_start="0.5"
       end_offset="0.5"
       start_smoothing="0.5"
       end_smoothing="0.5"
       jointype="extrapolated"
       miter_limit="100" />
    <inkscape:path-effect
       effect="taper_stroke"
       start_shape="center | center"
       end_shape="center | center"
       id="path-effect77-8-1"
       is_visible="true"
       lpeversion="1"
       stroke_width="1.88976"
       subpath="1"
       attach_start="0.5"
       end_offset="0.5"
       start_smoothing="0.5"
       end_smoothing="0.5"
       jointype="extrapolated"
       miter_limit="100" />
    <inkscape:path-effect
       effect="taper_stroke"
       start_shape="center | center"
       end_shape="center | center"
       id="path-effect50-12"
       is_visible="true"
       lpeversion="1"
       stroke_width="1.88976"
       subpath="1"
       attach_start="0.5"
       end_offset="0.5"
       start_smoothing="0.5"
       end_smoothing="0.5"
       jointype="extrapolated"
       miter_limit="100" />
    <inkscape:path-effect
       effect="taper_stroke"
       start_shape="center | center"
       end_shape="center | center"
       id="path-effect58-7"
       is_visible="true"
       lpeversion="1"
       stroke_width="1.88976"
       subpath="1"
       attach_start="0.5"
       end_offset="0.5"
       start_smoothing="0.5"
       end_smoothing="0.5"
       jointype="extrapolated"
       miter_limit="100" />
    <inkscape:path-effect
       effect="taper_stroke"
       start_shape="center | center"
       end_shape="center | center"
       id="path-effect62-7"
       is_visible="true"
       lpeversion="1"
       stroke_width="1.88976"
       subpath="1"
       attach_start="0.5"
       end_offset="0.5"
       start_smoothing="0.5"
       end_smoothing="0.5"
       jointype="extrapolated"
       miter_limit="100" />
    <inkscape:path-effect
       effect="taper_stroke"
       start_shape="center | center"
       end_shape="center | center"
       id="path-effect66-3"
       is_visible="true"
       lpeversion="1"
       stroke_width="1.88976"
       subpath="1"
       attach_start="0.5"
       end_offset="0.5"
       start_smoothing="0.5"
       end_smoothing="0.5"
       jointype="extrapolated"
       miter_limit="100" />
    <inkscape:path-effect
       effect="taper_stroke"
       start_shape="center | center"
       end_shape="center | center"
       id="path-effect74-61"
       is_visible="true"
       lpeversion="1"
       stroke_width="1.88976"
       subpath="1"
       attach_start="0.5"
       end_offset="0.5"
       start_smoothing="0.5"
       end_smoothing="0.5"
       jointype="extrapolated"
       miter_limit="100" />
    <inkscape:path-effect
       effect="taper_stroke"
       start_shape="center | center"
       end_shape="center | center"
       id="path-effect78-51"
       is_visible="true"
       lpeversion="1"
       stroke_width="1.88976"
       subpath="1"
       attach_start="0.5"
       end_offset="0.5"
       start_smoothing="0.5"
       end_smoothing="0.5"
       jointype="extrapolated"
       miter_limit="100" />
    <inkscape:path-effect
       effect="taper_stroke"
       start_shape="center | center"
       end_shape="center | center"
       id="path-effect88-42"
       is_visible="true"
       lpeversion="1"
       stroke_width="1.88976"
       subpath="1"
       attach_start="0.5"
       end_offset="0.5"
       start_smoothing="0.5"
       end_smoothing="0.5"
       jointype="extrapolated"
       miter_limit="100" />
    <inkscape:path-effect
       effect="taper_stroke"
       start_shape="center | center"
       end_shape="center | center"
       id="path-effect90-6"
       is_visible="true"
       lpeversion="1"
       stroke_width="1.88976"
       subpath="1"
       attach_start="0.5"
       end_offset="0.5"
       start_smoothing="0.5"
       end_smoothing="0.5"
       jointype="extrapolated"
       miter_limit="100" />
    <inkscape:path-effect
       effect="taper_stroke"
       start_shape="center | center"
       end_shape="center | center"
       id="path-effect92-4"
       is_visible="true"
       lpeversion="1"
       stroke_width="1.88976"
       subpath="1"
       attach_start="0.5"
       end_offset="0.5"
       start_smoothing="0.5"
       end_smoothing="0.5"
       jointype="extrapolated"
       miter_limit="100" />
    <inkscape:path-effect
       effect="taper_stroke"
       start_shape="center | center"
       end_shape="center | center"
       id="path-effect15-07-5"
       is_visible="true"
       lpeversion="1"
       stroke_width="1.88976"
       subpath="1"
       attach_start="0.5"
       end_offset="0.5"
       start_smoothing="0.5"
       end_smoothing="0.5"
       jointype="extrapolated"
       miter_limit="100" />
    <inkscape:path-effect
       effect="taper_stroke"
       start_shape="center | center"
       end_shape="center | center"
       id="path-effect14-7-1-6"
       is_visible="true"
       lpeversion="1"
       stroke_width="1.88976"
       subpath="1"
       attach_start="0.5"
       end_offset="0"
       start_smoothing="0.5"
       end_smoothing="0.5"
       jointype="extrapolated"
       miter_limit="100" />
    <inkscape:path-effect
       effect="taper_stroke"
       start_shape="center | center"
       end_shape="center | center"
       id="path-effect14-7-9-8-1"
       is_visible="true"
       lpeversion="1"
       stroke_width="1.88976"
       subpath="1"
       attach_start="0.0022281559"
       end_offset="0.5"
       start_smoothing="0.5"
       end_smoothing="0.5"
       jointype="extrapolated"
       miter_limit="100" />
    <inkscape:path-effect
       effect="taper_stroke"
       start_shape="center | center"
       end_shape="center | center"
       id="path-effect21-34-8"
       is_visible="true"
       lpeversion="1"
       stroke_width="1"
       subpath="1"
       attach_start="0.5"
       end_offset="0.5"
       start_smoothing="0.5"
       end_smoothing="0.5"
       jointype="extrapolated"
       miter_limit="100" />
    <inkscape:path-effect
       effect="taper_stroke"
       start_shape="center | center"
       end_shape="center | center"
       id="path-effect23-3-7"
       is_visible="true"
       lpeversion="1"
       stroke_width="1"
       subpath="1"
       attach_start="0.5"
       end_offset="0.5"
       start_smoothing="0.5"
       end_smoothing="0.5"
       jointype="extrapolated"
       miter_limit="100" />
    <inkscape:path-effect
       effect="taper_stroke"
       start_shape="center | center"
       end_shape="center | center"
       id="path-effect25-4-9"
       is_visible="true"
       lpeversion="1"
       stroke_width="1"
       subpath="1"
       attach_start="0.5"
       end_offset="0.5"
       start_smoothing="0.5"
       end_smoothing="0.5"
       jointype="extrapolated"
       miter_limit="100" />
    <inkscape:path-effect
       effect="taper_stroke"
       start_shape="center | center"
       end_shape="center | center"
       id="path-effect65-3-2"
       is_visible="true"
       lpeversion="1"
       stroke_width="1.88976"
       subpath="1"
       attach_start="0.5"
       end_offset="0.5"
       start_smoothing="0.5"
       end_smoothing="0.5"
       jointype="extrapolated"
       miter_limit="100" />
    <inkscape:path-effect
       effect="taper_stroke"
       start_shape="center | center"
       end_shape="center | center"
       id="path-effect65-4-2-0"
       is_visible="true"
       lpeversion="1"
       stroke_width="1.88976"
       subpath="1"
       attach_start="0.5"
       end_offset="0.5"
       start_smoothing="0.5"
       end_smoothing="0.5"
       jointype="extrapolated"
       miter_limit="100" />
  </defs>
  <g
     inkscape:groupmode="layer"
     id="layer3"
     inkscape:label="Border"
     sodipodi:insensitive="true">
    <rect
       style="fill:#000000;stroke:none;stroke-width:0.705556;stroke-linejoin:round"
       id="rect2"
       width="266.70001"
       height="419.10001"
       x="6.3499999"
       y="6.3499999"
       rx="0"
       ry="0" />
    <rect
       style="fill:#ffffff;stroke:none;stroke-width:0.678039;stroke-linejoin:round"
       id="rect3"
       width="254"
       height="406.39999"
       x="12.7"
       y="12.7"
       rx="0"
       ry="0" />
  </g>
  <g
     inkscape:label="Text"
     inkscape:groupmode="layer"
     id="layer1">
    <text
       xml:space="preserve"
       style="font-style:normal;font-variant:normal;font-weight:normal;font-stretch:normal;font-size:52.9168px;font-family:Lavanderia;-inkscape-font-specification:Lavanderia;display:inline;fill:#000000;stroke:none;stroke-width:1.16667;stroke-linecap:round;stroke-linejoin:round"
       x="46.169861"
       y="352.96948"
       id="text30"><tspan
         sodipodi:role="line"
         style="font-style:normal;font-variant:normal;font-weight:normal;font-stretch:normal;font-size:52.9168px;font-family:'Mission Script';-inkscape-font-specification:'Mission Script';fill:#000000;stroke:none;stroke-width:1.16667"
         x="46.169861"
         y="352.96948"
         id="tspan30">Noisebridge</tspan></text>
    <text
       xml:space="preserve"
       style="font-style:normal;font-variant:normal;font-weight:normal;font-stretch:normal;font-size:16.9333px;font-family:Governor;-inkscape-font-specification:Governor;fill:#000000;stroke:none;stroke-width:0.699998;stroke-linecap:round;stroke-linejoin:round"
       x="37.301846"
       y="395.08844"
       id="text38"><tspan
         sodipodi:role="line"
         style="font-style:normal;font-variant:normal;font-weight:normal;font-stretch:normal;font-size:16.9333px;font-family:Governor;-inkscape-font-specification:Governor;fill:#000000;stroke-width:0.699998"
         x="37.301846"
         y="395.08844"
         id="tspan38"><tspan
           style="font-style:normal;font-variant:normal;font-weight:normal;font-stretch:normal;font-size:16.9333px;font-family:'Blanch Caps';-inkscape-font-specification:'Blanch Caps'"
           id="tspan35">Celebrate </tspan><tspan
           style="font-style:normal;font-variant:normal;font-weight:normal;font-stretch:normal;font-size:16.9333px;font-family:'Mission Script';-inkscape-font-specification:'Mission Script';stroke-width:0.699998"
           id="tspan36"
           dy="0.61485869">15</tspan><tspan
           style="font-style:normal;font-variant:normal;font-weight:normal;font-stretch:normal;font-size:16.9333px;font-family:'Blanch Caps';-inkscape-font-specification:'Blanch Caps'"
           id="tspan37"
           dy="-0.61485869"> years of</tspan></tspan></text>
    <text
       xml:space="preserve"
       style="font-style:normal;font-variant:normal;font-weight:normal;font-stretch:normal;font-size:16.9333px;font-family:'Blanch Caps';-inkscape-font-specification:'Blanch Caps';fill:#000000;stroke:none;stroke-width:0.699998;stroke-linecap:round;stroke-linejoin:round"
       x="34.270618"
       y="407.25928"
       id="text39"><tspan
         sodipodi:role="line"
         style="font-style:normal;font-variant:normal;font-weight:normal;font-stretch:normal;font-size:16.9333px;font-family:'Blanch Caps';-inkscape-font-specification:'Blanch Caps';fill:#000000;stroke-width:0.699998"
         x="34.270618"
         y="407.25928"
         id="tspan39">hacking in the Mission</tspan></text>
    <path
       d="m 168.92694,394.06104 c 0,0 0,0 0,0 h -2.55695 v -0.84667 c 0,-0.22014 0,-0.22014 0.0508,-0.27094 l 2.37068,-3.14961 c 0.4064,-0.52493 0.4064,-0.52493 0.4064,-1.08374 0,-1.0668 -0.88054,-1.94734 -1.96427,-1.94734 -1.06681,0 -1.94734,0.88054 -1.94734,1.94734 v 0.59267 c 0,0.13547 0.11853,0.27094 0.27093,0.27094 h 0.54187 c 0.1524,0 0.27093,-0.13547 0.27093,-0.27094 v -0.59267 c 0,-0.47413 0.38947,-0.8636 0.86361,-0.8636 0.49107,0 0.88053,0.38947 0.88053,0.8636 0,0.22014 0,0.22014 -0.0508,0.28787 l -2.37067,3.13268 c -0.4064,0.54187 -0.4064,0.54187 -0.4064,1.08374 v 1.65947 c 0,0.13547 0.11853,0.27094 0.27093,0.27094 h 3.36975 c 0.1524,0 0.27093,-0.13547 0.27093,-0.27094 v -0.54187 c 0,-0.1524 -0.11853,-0.27093 -0.27093,-0.27093 z m 4.48733,-0.88054 c 0,0.49107 -0.38946,0.88054 -0.8636,0.88054 -0.47414,0 -0.8636,-0.38947 -0.8636,-0.88054 0,-0.2032 0,-0.2032 0.0508,-0.254 l 1.6764,-2.23521 z m -0.0339,-4.19948 -1.69334,2.23521 v -2.50615 c 0,-0.47413 0.38946,-0.8636 0.8636,-0.8636 0.47414,0 0.8636,0.38947 0.8636,0.8636 0,0.2032 0,0.2032 -0.0339,0.27094 z m 1.1176,-0.28787 c 0,-1.0668 -0.88054,-1.93041 -1.94734,-1.93041 -1.08374,0 -1.94734,0.88054 -1.94734,1.94734 v 4.47042 c 0,0 0,0 0,0 v 0.0169 c 0,1.06681 0.88054,1.94735 1.94734,1.94735 1.08374,0 1.94734,-0.88054 1.94734,-1.96428 z m 5.04615,5.36789 c 0,0 0,0 0,0 h -2.55694 v -0.84667 c 0,-0.22014 0,-0.22014 0.0508,-0.27094 l 2.37067,-3.14961 c 0.4064,-0.52493 0.4064,-0.52493 0.4064,-1.08374 0,-1.0668 -0.88053,-1.94734 -1.96427,-1.94734 -1.0668,0 -1.94734,0.88054 -1.94734,1.94734 v 0.59267 c 0,0.13547 0.11853,0.27094 0.27093,0.27094 h 0.54187 c 0.1524,0 0.27094,-0.13547 0.27094,-0.27094 v -0.59267 c 0,-0.47413 0.38946,-0.8636 0.8636,-0.8636 0.49107,0 0.88054,0.38947 0.88054,0.8636 0,0.22014 0,0.22014 -0.0508,0.28787 l -2.37068,3.13268 c -0.4064,0.54187 -0.4064,0.54187 -0.4064,1.08374 v 1.65947 c 0,0.13547 0.11853,0.27094 0.27093,0.27094 h 3.36975 c 0.1524,0 0.27093,-0.13547 0.27093,-0.27094 v -0.54187 c 0,-0.1524 -0.11853,-0.27093 -0.27093,-0.27093 z m 5.43558,-2.57388 c 0,0 0,0 0,0 h -0.8636 v -0.8636 c 0,-0.1524 -0.11853,-0.27094 -0.27093,-0.27094 h -0.54187 c -0.1524,0 -0.27094,0.11854 -0.27094,0.27094 v 0.8636 h -1.74414 c 0,-0.16933 0,-0.16933 0.0508,-0.23707 l 2.37068,-3.13268 c 0.4064,-0.54186 0.4064,-0.54186 0.4064,-1.08373 0,-0.1524 -0.11853,-0.27094 -0.27093,-0.27094 h -0.54187 c -0.1524,0 -0.27094,0.11854 -0.27094,0.27094 0,0.22013 0,0.22013 -0.0508,0.28786 l -2.37067,3.13268 c -0.38947,0.52494 -0.40641,0.54187 -0.40641,1.03294 v 0.8128 c 0,0.1524 0.11854,0.27094 0.27094,0.27094 h 2.55694 v 2.30294 c 0,0.13547 0.11854,0.27094 0.27094,0.27094 h 0.54187 c 0.1524,0 0.27093,-0.13547 0.27093,-0.27094 0,0 0,0 0,0 v -2.30294 h 0.8636 c 0.1524,0 0.27094,-0.11854 0.27094,-0.27094 v -0.54186 c 0,-0.15241 -0.11854,-0.27094 -0.27094,-0.27094 z"
       id="path4"
       style="font-size:16.9334px;font-family:'Blanch Caps';-inkscape-font-specification:'Blanch Caps';text-align:end;text-anchor:end;stroke-width:0.799997;stroke-linecap:round;stroke-linejoin:round" />
    <path
       d="m 197.26606,386.77968 c -1.08374,0 -1.96428,0.88053 -1.96428,1.94734 v 6.14682 c 0,0.1524 0.11854,0.27094 0.27094,0.27094 h 0.54187 c 0.1524,0 0.27093,-0.11854 0.27093,-0.27094 v -3.36975 h 1.74414 v 3.36975 c 0,0.1524 0.11854,0.27094 0.27094,0.27094 h 0.54186 c 0.15241,0 0.27094,-0.11854 0.27094,-0.27094 v -6.14682 c 0,-1.06681 -0.88054,-1.94734 -1.94734,-1.94734 z m 0.8636,3.64068 h -1.74414 v -1.69334 c 0,-0.47414 0.38947,-0.86361 0.88054,-0.86361 0.47413,0 0.8636,0.38947 0.8636,0.86361 z m 6.12988,-3.65762 h -0.54187 c -0.1524,0 -0.27093,0.11854 -0.27093,0.27094 v 6.14682 c 0,0.49107 -0.38947,0.88054 -0.86361,0.88054 -0.49107,0 -0.88053,-0.38947 -0.88053,-0.88054 v -6.14682 c 0,-0.1524 -0.11854,-0.27094 -0.27094,-0.27094 h -0.54187 c -0.13547,0 -0.27093,0.11854 -0.27093,0.27094 v 6.14682 c 0,1.08374 0.88053,1.96428 1.96427,1.96428 1.06681,0 1.94734,-0.88054 1.94734,-1.96428 v -6.14682 c 0,-0.1524 -0.11853,-0.27094 -0.27093,-0.27094 z m 4.75827,2.81095 h 0.54187 c 0.1524,0 0.27093,-0.11854 0.27093,-0.27094 v -0.57573 c 0,-1.08374 -0.88054,-1.94734 -1.94734,-1.94734 -1.06681,0 -1.94734,0.8636 -1.94734,1.94734 v 4.48735 c 0,1.0668 0.88053,1.93041 1.94734,1.93041 1.0668,0 1.94734,-0.86361 1.94734,-1.93041 v -2.54001 c 0,-0.1524 -0.11853,-0.27094 -0.27093,-0.27094 0,0 0,0 0,0 h -1.40548 c -0.1524,0 -0.27093,0.11854 -0.27093,0.27094 v 0.54187 c 0,0.13546 0.11853,0.254 0.27093,0.254 h 0.59267 v 1.74414 c 0,0.47413 -0.38947,0.8636 -0.8636,0.8636 -0.47414,0 -0.8636,-0.38947 -0.8636,-0.8636 v -4.48735 c 0,-0.49107 0.38946,-0.86361 0.8636,-0.86361 0.47413,0 0.8636,0.37254 0.8636,0.86361 v 0.57573 c 0,0.1524 0.11854,0.27094 0.27094,0.27094 z m 8.56828,-0.86361 c 0,-1.0668 -0.88054,-1.94734 -1.96428,-1.94734 -1.0668,0 -1.94734,0.88054 -1.94734,1.94734 v 0.59267 c 0,0.13547 0.11854,0.27094 0.27094,0.27094 h 0.54187 c 0.1524,0 0.27093,-0.13547 0.27093,-0.27094 v -0.59267 c 0,-0.47413 0.38947,-0.8636 0.8636,-0.8636 0.49107,0 0.88054,0.38947 0.88054,0.8636 v 0.81281 c 0,0.49107 -0.38947,0.88053 -0.88054,0.88053 -0.1524,0 -0.27093,0.11854 -0.27093,0.27094 v 0.54187 c 0,0.1524 0.11853,0.27093 0.27093,0.27093 0.49107,0 0.88054,0.38947 0.88054,0.8636 v 0.82974 c 0,0.49107 -0.38947,0.88054 -0.88054,0.88054 -0.47413,0 -0.8636,-0.38947 -0.8636,-0.88054 v -0.57573 c 0,-0.15241 -0.11853,-0.27094 -0.27093,-0.27094 h -0.54187 c -0.1524,0 -0.27094,0.11853 -0.27094,0.27094 v 0.57573 c 0,1.08374 0.88054,1.96428 1.94734,1.96428 1.08374,0 1.96428,-0.88054 1.96428,-1.96428 v -0.82974 c 0,-0.5588 -0.23707,-1.04987 -0.60961,-1.40547 0.37254,-0.3556 0.60961,-0.8636 0.60961,-1.4224 z"
       id="path6"
       style="font-size:16.9334px;font-family:'Blanch Caps';-inkscape-font-specification:'Blanch Caps';text-align:end;text-anchor:end;stroke-width:0.799997;stroke-linecap:round;stroke-linejoin:round" />
    <path
       d="m 231.26095,386.76274 c 0,0 0,0 0,0 h -3.35282 c -0.1524,0 -0.27093,0.11854 -0.27093,0.27094 v 0.54187 c 0,0.1524 0.11853,0.27093 0.27093,0.27093 h 2.54001 v 0.84667 c 0,0.22013 0,0.22013 -0.0339,0.28787 l -2.38761,3.13268 c -0.38947,0.54187 -0.38947,0.54187 -0.38947,1.08373 v 1.67641 c 0,0.13547 0.11853,0.27094 0.27093,0.27094 H 228.45 c 0.13547,0 0.27094,-0.13547 0.27094,-0.27094 v -1.67641 c 0,-0.22013 0,-0.22013 0.0339,-0.27093 l 2.38761,-3.14961 c 0.38947,-0.52494 0.38947,-0.52494 0.38947,-1.08374 v -1.1176 c 0,0 0,0 0,0 v -0.54187 c 0,-0.1524 -0.11853,-0.27094 -0.27093,-0.27094 z m 4.50428,2.76015 c 0,0.49107 -0.38947,0.88053 -0.8636,0.88053 h -0.88054 v -2.55694 h 0.88054 c 0.47413,0 0.8636,0.38947 0.8636,0.8636 z m -0.8636,-2.76015 h -1.69334 c -0.13547,0 -0.27094,0.11854 -0.27094,0.27094 0,0 0,0 0,0 v 3.36974 1.08374 3.38668 c 0,0.13547 0.13547,0.27094 0.27094,0.27094 h 0.54187 c 0.1524,0 0.27093,-0.13547 0.27093,-0.27094 v -3.38668 h 0.88054 c 1.0668,0 1.94734,-0.88054 1.94734,-1.96427 v -0.81281 c 0,-1.0668 -0.88054,-1.94734 -1.94734,-1.94734 z m 7.77241,0 c -0.54186,0 -1.04987,0.23707 -1.40547,0.60961 -0.3556,-0.37254 -0.8636,-0.60961 -1.40547,-0.60961 -1.08374,0 -1.96427,0.88054 -1.96427,1.94734 v 6.16376 c 0,0.13547 0.13546,0.27094 0.27093,0.27094 h 0.54187 c 0.1524,0 0.27093,-0.13547 0.27093,-0.27094 v -6.16376 c 0,-0.47413 0.38947,-0.8636 0.88054,-0.8636 0.47414,0 0.8636,0.38947 0.8636,0.8636 v 6.16376 c 0,0.13547 0.11854,0.27094 0.27094,0.27094 h 0.54187 c 0.1524,0 0.27093,-0.13547 0.27093,-0.27094 v -6.16376 c 0,-0.47413 0.38947,-0.8636 0.8636,-0.8636 0.49107,0 0.88054,0.38947 0.88054,0.8636 v 6.16376 c 0,0.13547 0.11854,0.27094 0.27094,0.27094 h 0.54186 c 0.1524,0 0.27094,-0.13547 0.27094,-0.27094 v -6.16376 c 0,-1.0668 -0.88054,-1.94734 -1.96428,-1.94734 z"
       id="path8"
       style="font-size:16.9334px;font-family:'Blanch Caps';-inkscape-font-specification:'Blanch Caps';text-align:end;text-anchor:end;stroke-width:0.799997;stroke-linecap:round;stroke-linejoin:round" />
    <text
       xml:space="preserve"
       style="font-style:normal;font-variant:normal;font-weight:normal;font-stretch:normal;font-size:16.9334px;font-family:'Blanch Caps';-inkscape-font-specification:'Blanch Caps';text-align:end;text-anchor:end;fill:#000000;stroke:none;stroke-width:0.799997;stroke-linecap:round;stroke-linejoin:round"
       x="232.54425"
       y="407.25934"
       id="text43"><tspan
         sodipodi:role="line"
         style="font-style:normal;font-variant:normal;font-weight:normal;font-stretch:normal;font-size:16.9334px;font-family:'Blanch Caps';-inkscape-font-specification:'Blanch Caps';text-align:end;text-anchor:end;fill:#000000;stroke-width:0.799997"
         x="232.54425"
         y="407.25934"
         id="tspan43">272 Capp Street</tspan></text>
  </g>
  <g
     inkscape:groupmode="layer"
     id="layer2"
     inkscape:label="Robot" />
</svg>
