<?xml version="1.0" encoding="utf-8"?>
<!-- Generator: Adobe Illustrator 15.0.0, SVG Export Plug-In . SVG Version: 6.00 Build 0)  -->
<!DOCTYPE svg PUBLIC "-//W3C//DTD SVG 1.0//EN" "http://www.w3.org/TR/2001/REC-SVG-20010904/DTD/svg10.dtd">
<svg version="1.0" xmlns="http://www.w3.org/2000/svg" xmlns:xlink="http://www.w3.org/1999/xlink" x="0px" y="0px" width="504px"
	 height="504px" viewBox="0 0 504 504" enable-background="new 0 0 504 504" xml:space="preserve">
<g id="Grid">
</g>
<g id="Objects">
	<g id="LWPOLYLINE_3_">
		<path d="M47.392,252.537h410.311c0,113.298-91.868,205.165-205.165,205.165C139.241,457.702,47.392,365.835,47.392,252.537z"/>
	</g>
	<g id="CIRCLE">
		<path d="M468.382,252.537c0-119.2-96.646-215.843-215.844-215.843c-119.199,0-215.844,96.643-215.844,215.843
			c0,119.201,96.645,215.845,215.844,215.845C371.736,468.382,468.382,371.738,468.382,252.537L468.382,252.537z"/>
	</g>
	<g id="LWPOLYLINE_1_">
		<path fill="#ED1C24" d="M112.682,252.537c-0.545,6.572,3.074,15.635,7.992,19.99l16.248,16.23l-25.084,43.773l52.029-28.21
			l-27.647,51.046l51.027-27.684l-27.666,51.044l51.134-27.681l-4.042,7.481l24.118,24.1c10.663,10.679,27.964,10.679,38.608,0
			l35.868-35.835l-5.339-5.375c-10.61-10.574-10.61-27.787,0-38.361c10.573-10.609,27.788-10.609,38.361,0l5.375,5.341l35.834-35.87
			c4.954-4.355,8.573-13.418,8.01-19.99H112.682z"/>
	</g>
	<g id="LWPOLYLINE_2_">
		<path fill="#ED1C24" d="M47.392,252.537h410.311c0-113.297-91.868-205.163-205.165-205.163
			C139.241,47.374,47.392,139.24,47.392,252.537z"/>
	</g>
	<g id="LWPOLYLINE">
		<path d="M205.076,149.534l25.699-25.715l-25.734,25.715c-19.076-13.28-45.319-8.606-58.634,10.468
			c-10.083,13.388-10.083,34.78,0,48.167l-25.732,25.751c-4.567,4.038-8.203,12.506-7.992,18.617H387.51
			c0.211-6.111-3.443-14.579-8.01-18.617l-31.231-31.268l5.095-5.128l53.223-8.995l-91.797-91.796l-9.028,53.223l-5.093,5.127
			L269.4,123.819c-10.645-10.682-27.946-10.682-38.626,0"/>
	</g>
</g>
</svg>
